<?xml version="1.0" encoding="UTF-8"?><svg xmlns="http://www.w3.org/2000/svg" viewBox="0 0 98.68 35.87"><defs><style>.d{fill:#396599;}</style></defs><g id="a"/><g id="b"><g id="c"><path class="d" d="M24.53,15.57c.79-2.11,2.78-3.17,5.02-3.17v4.76c-1.29-.17-2.48,.1-3.5,.79-1.02,.69-1.52,1.82-1.52,3.4v7.9h-4.26V12.73h4.26v2.84Z"/><path class="d" d="M38.45,19.24c2.41,.5,5.55,1.65,5.52,5.19,0,1.69-.63,3.01-1.92,3.93-1.26,.89-2.84,1.36-4.73,1.36-3.4,0-5.72-1.32-6.94-3.93l3.7-2.08c.5,1.42,1.55,2.15,3.24,2.15,1.52,0,2.28-.46,2.28-1.42,0-.89-1.32-1.39-3.01-1.82-2.45-.63-5.52-1.65-5.52-5.09,0-1.62,.59-2.91,1.78-3.83,1.22-.96,2.71-1.42,4.5-1.42,2.68,0,4.99,1.26,6.28,3.5l-3.64,1.98c-.53-1.12-1.42-1.69-2.64-1.69-1.09,0-1.92,.53-1.92,1.36,0,.89,1.32,1.39,3.01,1.82"/><path class="d" d="M72.83,12.73h4.26V29.26h-4.26v-1.85c-1.03,1.55-2.68,2.31-4.93,2.31-1.82,0-3.3-.6-4.49-1.82-1.16-1.22-1.75-2.88-1.75-5.02V12.73h4.26v9.62c0,2.21,1.29,3.4,3.27,3.4,2.21,0,3.64-1.36,3.64-4.1V12.73Z"/><path class="d" d="M96.3,14.81c1.59,1.69,2.38,3.73,2.38,6.18s-.79,4.53-2.38,6.21c-1.55,1.69-3.47,2.51-5.68,2.51s-4.1-.79-5.36-2.41v8.56h-4.26V12.73h4.26v1.95c1.26-1.62,3.04-2.41,5.36-2.41s4.13,.86,5.68,2.55m-6.48,10.84c1.32,0,2.41-.43,3.27-1.29,.89-.89,1.32-2.02,1.32-3.37s-.43-2.48-1.32-3.34c-.86-.89-1.95-1.32-3.27-1.32s-2.41,.43-3.27,1.32c-.86,.86-1.29,1.98-1.29,3.34s.43,2.48,1.29,3.37c.86,.86,1.95,1.29,3.27,1.29"/><path class="d" d="M52.45,10.28c1.05-2.24,2.15-3.33,4.38-4.38,.5-.23,.5-.91,0-1.15-2.24-1.05-3.34-2.15-4.38-4.38-.23-.5-.91-.5-1.15,0-1.05,2.24-2.15,3.33-4.38,4.38-.5,.23-.5,.91,0,1.15,2.24,1.05,3.34,2.15,4.38,4.38,.23,.49,.91,.5,1.15,0"/><path class="d" d="M58.65,16.83v-4.1h-13.54v4.1h4.62v6.88c0,4.2,1.85,5.95,6.77,5.66,.39-.02,.8-.06,1.22-.11v-3.87c-.42,.02-.8,.04-1.15,.05-1.7,.02-2.59-.25-2.59-1.73v-6.88h4.65Z"/><path class="d" d="M10.15,9.76c-2.35-.17-3.5,.76-3.5,2.81v.17h3.5v4.1h-3.5v12.43H2.38v-12.43H0v-4.1H2.38v-.17c0-4.66,2.61-7.21,7.77-6.91v4.1Z"/><rect class="d" x="12.1" y="12.73" width="4.26" height="16.53"/></g></g></svg>