<?xml version="1.0" encoding="utf-8"?>
<!-- Generator: Adobe Illustrator 26.2.1, SVG Export Plug-In . SVG Version: 6.00 Build 0)  -->
<svg version="1.1" id="Layer_1" xmlns="http://www.w3.org/2000/svg" xmlns:xlink="http://www.w3.org/1999/xlink" x="0px" y="0px"
	 viewBox="0 0 137.4 39.7" style="enable-background:new 0 0 137.4 39.7;" xml:space="preserve">
<style type="text/css">
	.st0{fill:#396599;}
</style>
<g id="a">
</g>
<g id="b">
	<g id="c">
		<g transform="translate(0.000000,410.000000) scale(0.100000,-0.100000)">
			<path class="st0" d="M250.3,3947.1v4.7H287c37.4,0,44.5-0.3,53.9-2.4c18.4-4,31.1-15,35-30.5c1.1-4,1.3-15.5,0.3-20
				c-2.9-15-12.3-25.2-28.4-30.6c-8.7-3.1-20.5-4.5-35-4.5h-8.1v-17.6c0-16.1,0.2-17.7,1.1-20.2c1-2.1,1.8-2.7,4.2-4
				c3.1-1.3,7.1-2.1,14.2-2.9l3.4-0.3v-9.4h-77.4v4.7c0,5.2-0.3,5,5,5.6c1.6,0.3,3.9,0.8,4.8,1.3c3.9,1.6,3.5-0.8,3.5,59.7
				c0,30.2-0.3,55.5-0.5,56.3c-0.6,2.6-4.2,4.2-12.9,5.3C250.3,3942.5,250.3,3944.6,250.3,3947.1L250.3,3947.1z M308.7,3941.3h-4
				v-65.6h4c18.2,0,28.5,11.6,28.5,32.4c0,8.1-1,13.1-4,19c-3.7,7.3-9,11.3-16.9,13.2C314.2,3940.8,310.8,3941.3,308.7,3941.3z"/>
			<path class="st0" d="M943.1,3940.5l5,6h8.1v-27.7h23.7V3907h-23.7l0.2-35.5l0.2-35.6l1.5-2.9c1.9-4,4.8-5.3,10.5-5
				c3.4,0.3,5.2,0.8,8.7,2.4c2.4,1.1,4.5,2.1,4.7,2.1c0.2,0,1-1.1,1.9-2.4l1.6-2.4l-2.3-3.2c-3.2-4.7-9.4-10-14.2-12.4
				c-5.2-2.7-11.1-3.7-19.2-3.7c-14.4,0-22.6,4-27.6,13.4c-2.6,4.8-3.9,20.8-4,48.2l-0.3,37.1h-11.1v7.4l5,2.3
				C922.3,3921.5,934.2,3930.5,943.1,3940.5L943.1,3940.5z"/>
			<path class="st0" d="M403.9,3915c16.3,4.7,21.9,6,25,6.1h3.9l-0.3-8.4c-0.2-4.7-0.3-11.1-0.5-14.2l-0.2-5.8l1.9,4.5
				c5,12.3,9.5,18.2,16.1,21.5c3.4,1.6,4.5,1.9,8.7,1.9c4,0,5.3-0.2,7.7-1.5l2.9-1.5l0.2-14.5l0.2-14.5l-10.2-0.3
				c-12.1-0.5-16.9-1.5-22.9-4.4l-4.5-2.3l-0.2-27.3c-0.2-20.6,0-27.9,0.6-29.5c1.3-3.7,3.7-5,13.1-6.5l2.3-0.3v-8.7l-32.3,0.2
				l-32.4,0.2l-0.2,4.2l-0.2,4.2l3.1,0.5c4.5,0.6,6.8,1.8,7.6,3.5c0.3,1,0.6,15.2,0.6,37.7v36.1l-5.6,3.4l-5.6,3.4v6.1L403.9,3915
				L403.9,3915z"/>
			<path class="st0" d="M509.9,3920.5c7.1,0.6,10.5,0.6,18.2,0c19.8-1.8,30.6-8.7,35.3-23.1c1-2.9,1-6.8,1.3-38.1l0.3-34.8l1.5-2.9
				c0.8-1.6,1.9-3.1,2.6-3.1c1.8-0.3,5.8,4.4,21.9,25.8l14.8,19.8l-14,19.5c-7.7,10.8-15,20.5-16.1,21.8c-1.1,1.1-3.2,2.7-4.7,3.5
				l-2.7,1.3v8.5h60.2v-8.9h-1.9c-1.1,0-3.1-0.5-4.5-1.1c-2.3-1-2.6-1.3-2.6-3.2c0-1.1,0.5-3.2,1.3-4.8c1.8-3.4,13.7-20.5,14.5-20.5
				c0.6,0,14.4,18.2,15.6,21c2.3,4.4,0.5,7.3-5.2,8.4l-3.4,0.8v8.5h37.3v-8.5l-2.7-1c-6-2.1-7.4-3.5-20.8-21.1
				c-7.1-9.2-13.1-17.3-13.2-17.6c-0.5-0.8,30.2-43.7,33.7-47.1c1.3-1.1,3.5-2.7,5.3-3.7l3.1-1.5v-8.7l-31.1,0.2l-31.1,0.2l-0.2,4.2
				l-0.2,4.2l3.9,0.6c6.8,1.1,8.5,3.5,6,8.5c-0.8,1.3-17.9,25.3-19,26.5c-0.2,0.2-0.8-0.3-1.3-1.1c-0.5-0.8-4.5-6.1-8.7-11.9
				c-4.2-5.8-8.2-11.3-8.7-12.3c-2.6-5,0.6-8.7,8.5-9.8l3.1-0.5v-4c0-3.2-0.3-4-1-4.4c-1.6-0.6-55.8-0.5-59.8,0.3
				c-7.6,1.3-12.9,4.8-15.6,10.3l-1.6,3.2l-2.4-3.1c-3.1-3.5-9.5-8.2-14-9.8c-4.7-1.8-12.4-2.4-19-1.8
				c-14.8,1.5-23.5,11.3-23.5,26.5c0,12.4,5.5,20.5,18.1,26.6c3.2,1.6,13.7,5.5,23.1,8.9l17.1,6l-0.3,14c-0.3,13.1-0.3,14-1.6,16.5
				c-2.9,5.5-10.6,6.5-14.8,1.6c-3.2-3.7-4.2-10.2-2.7-19.7c0.6-3.7,1-6.8,0.8-6.9c-0.2-0.2-5.2-1-11.3-1.8
				c-10.8-1.5-11.1-1.5-13.4-0.5c-3.4,1.5-6.3,4.8-7.4,8.9c-1.3,4.2-0.6,10.2,1.6,14.7c4,8.5,16.5,15,31.8,16.6L509.9,3920.5z
				 M526,3866.8c-0.5,0-3.7-1.3-7.3-2.7c-7.7-3.1-11-5.8-12.4-10.8c-1.3-4.4-1.1-10.8,0.3-15.5c2.4-8.1,10.3-11.3,17.9-7.7l2.1,1
				v17.9C526.8,3862.9,526.5,3866.8,526,3866.8z"/>
			<path class="st0" d="M725,3920.5c10.5,1.5,22.9-0.6,31.5-5.5c1.8-1,5.2-3.9,7.7-6.3c3.5-3.5,5-5.5,6.9-9.5
				c3.4-7.1,4.2-11,4.7-20.2l0.3-8.2h-64l0.5-4.5c2.1-23.9,17.7-36.9,39-32.4c7.6,1.6,15.2,6.3,19.7,12.3l1.3,1.6l2.3-1.3
				c2.3-1.3,2.3-1.5,1.8-3.5c-1.9-8.2-6.6-16.8-12.9-22.9c-8.4-8.4-17.9-11.8-33.1-11.8c-11.3,0-18.2,1.5-25.5,5
				c-17.3,8.7-27.1,26.1-27.1,48.2c0,7.9,1,16.5,1.9,16.5c0.3,0,0.3,0.3,0.2,0.6c-0.3,0.6,1.1,5.8,2.3,7.9c0.3,0.6,0.8,1.5,0.8,1.9
				c0.2,1,4.2,7.6,6.8,11.3C698.1,3911,710.6,3918.4,725,3920.5L725,3920.5z M732.6,3911.2c-2.6,0.8-3.2,0.8-6,0.2
				c-2.7-0.8-4-1.6-6.8-4.5c-3.5-4-6-11.5-6.9-21.1l-0.5-4.5h31.3l-0.5,6.1C742.3,3901.8,738.9,3909.4,732.6,3911.2L732.6,3911.2z"
				/>
			<path class="st0" d="M803.1,3915c16.3,4.5,21.9,6,25,6.1h4l-0.3-2.4c-0.2-1.5-0.3-5.8-0.5-9.7l-0.3-7.1l4,4
				c6.8,7.1,14.2,11.6,22.4,13.7c4.7,1.3,15,1.5,19.5,0.3c10.3-2.6,17.3-9.4,20.5-19.8c1-3.2,1-7.6,1.3-40.8
				c0.2-20.5,0.6-37.6,1-38.1c0.6-1.1,3.7-2.3,7.3-2.7l3.1-0.5l-0.2-4.2l-0.2-4.2H850l-0.2,4.2l-0.2,4.2l4,0.6
				c3.1,0.5,4.4,1,5.3,2.3l1.3,1.5v67.1l-1.3,2.6c-0.8,1.5-2.3,3.2-3.2,3.9c-4.2,2.9-13.9,2.4-22.1-1l-2.9-1.1v-35
				c0-38.5,0-38.2,3.7-39.4c1.1-0.3,3.1-0.8,4.5-1l2.4-0.5v-8.7l-29.7,0.2l-29.7,0.2l-0.2,4.2l-0.2,4.2l2.9,0.3
				c1.5,0.2,3.7,0.6,4.7,1c3.7,1.3,3.7,0.2,3.7,40.3v36.3l-5.6,3.4l-5.6,3.4v6.1L803.1,3915L803.1,3915z"/>
		</g>
	</g>
</g>
<g transform="translate(0.000000,800.000000) scale(0.100000,-0.100000)">
	<path class="st0" d="M1025.6,7776.8c-9.8,1.8-17.3,8.9-19.4,18.5c-0.3,1.3-0.3,1.9-0.3,4.8c0,3.1,0,3.5,0.3,4.8
		c2.1,9.2,9,16.1,18.2,18.4c1.3,0.3,1.9,0.3,9,0.3h7.6v23.4h-5.5c-6.3,0-8.7,0.2-10.8,0.5c-9.2,1.9-16.3,9-18.4,18.2
		c-0.3,1.3-0.3,1.9-0.3,4.8s0,3.5,0.3,4.8c2.1,9.4,9,16.3,18.4,18.4c1.3,0.3,1.9,0.3,4.8,0.3s3.5,0,4.8-0.3
		c9.2-2.1,16.1-9,18.4-18.2c0.3-1.3,0.3-1.9,0.3-9v-7.6h23.4v6.9c0.2,6.3,0.2,7.3,0.5,8.7c0.8,4.7,3.2,9.2,6.6,12.6
		c3.2,3.2,7.3,5.5,11.9,6.5c1.3,0.3,1.9,0.3,4.8,0.3c3.1,0,3.5,0,4.8-0.3c9.4-2.1,16.3-9,18.4-18.4c0.3-1.3,0.3-1.9,0.3-4.8
		c0-3.1,0-3.5-0.3-4.8c-2.1-9.4-9.2-16.5-18.4-18.2c-2.1-0.5-4.5-0.5-10.8-0.5h-5.5v-23.4h7.6c7.1-0.2,7.6-0.2,8.9-0.5
		c9.4-2.1,16.1-9,18.2-18.4c0.3-1.3,0.3-1.9,0.3-4.8c0-3.7-0.2-4.8-1-7.4c-2.6-7.9-9.2-13.9-17.6-15.6c-1.3-0.3-1.9-0.3-4.8-0.3
		c-3.1,0-3.5,0-4.8,0.3c-9.5,2.1-16.8,9.5-18.4,19c-0.3,1.5-0.3,2.4-0.3,8.7v7.1h-23.4v-7.6c-0.2-7.1-0.2-7.6-0.5-8.9
		c-2.1-9.2-9-16.1-18.2-18.2c-1.8-0.3-6.9-0.5-8.7-0.2L1025.6,7776.8z M1032.1,7789.2c4,1,7.3,4.2,8.2,8.2c0.3,1.1,0.3,1.6,0.3,7.6
		v6.5h-6.3c-6,0-6.5,0-7.6-0.3c-5-1.3-8.5-5.8-8.5-11c0-5.2,3.4-9.7,8.5-11C1028.1,7788.8,1030.5,7788.8,1032.1,7789.2z
		 M1103.1,7789.2c5,1.3,8.5,5.8,8.5,11s-3.5,9.7-8.5,11c-1.1,0.3-1.6,0.3-7.6,0.3h-6.5v-6.3c0-6,0-6.5,0.3-7.6c1-4,4.2-7.3,8.2-8.2
		C1099.2,7788.9,1101.4,7788.9,1103.1,7789.2L1103.1,7789.2z M1076.8,7835.7v11.9h-23.9v-23.9h23.9V7835.7L1076.8,7835.7z
		 M1040.5,7866.2c0,6,0,6.5-0.3,7.6c-1.9,7.9-11.3,11.1-17.9,6.3c-4.2-3.2-5.5-9-3.2-13.9c1.8-3.5,5.2-6,9.2-6.3
		c0.6,0,3.7-0.2,6.8-0.2h5.5L1040.5,7866.2L1040.5,7866.2L1040.5,7866.2z M1103.1,7860.2c5.2,1.3,8.5,5.8,8.5,11
		c0,6.3-5,11.3-11.3,11.3c-5.2,0-9.7-3.5-11-8.5c-0.3-1.1-0.3-1.6-0.3-7.7v-6.5h6.5C1101.4,7859.9,1101.9,7859.9,1103.1,7860.2z"/>
</g>
</svg>
